<?xml version="1.0" encoding="utf-8"?>
<!-- Generator: Adobe Illustrator 27.5.0, SVG Export Plug-In . SVG Version: 6.00 Build 0)  -->
<svg version="1.1" id="Layer_1" xmlns="http://www.w3.org/2000/svg" xmlns:xlink="http://www.w3.org/1999/xlink" x="0px" y="0px"
	 viewBox="0 0 512 512" style="enable-background:new 0 0 512 512;" xml:space="preserve">
<style type="text/css">
	.st0{fill-rule:evenodd;clip-rule:evenodd;}
</style>
<path class="st0" d="M64.01,495.99V64c0-35.35,28.65-64,64-64H384c35.35,0,64,28.65,64,64v431.99c0.01,8.84-7.15,16-15.99,16.01
	c-2.69,0-5.33-0.67-7.69-1.96L256,418.2L87.68,510.03c-7.75,4.24-17.47,1.4-21.72-6.36C64.68,501.32,64,498.67,64.01,495.99z
	 M261.12,131.2c-1.38-2.83-4.79-4-7.62-2.62c-1.14,0.56-2.07,1.48-2.62,2.62l-20.29,41.12c-0.82,1.69-2.43,2.86-4.29,3.14
	l-45.44,6.59c-3.11,0.47-5.25,3.38-4.78,6.49c0.19,1.22,0.76,2.35,1.64,3.21l32.83,32.03c1.34,1.31,1.95,3.2,1.63,5.06l-7.71,45.25
	c-0.52,3.1,1.58,6.04,4.68,6.55c1.22,0.2,2.48,0,3.57-0.57l40.64-21.38c1.65-0.86,3.63-0.86,5.28,0l40.64,21.38
	c2.8,1.44,6.23,0.33,7.67-2.46c0.56-1.08,0.75-2.32,0.55-3.52l-7.74-45.28c-0.33-1.85,0.27-3.74,1.6-5.06l32.9-32.03
	c2.24-2.2,2.28-5.81,0.07-8.05c-0.86-0.88-1.99-1.46-3.21-1.64l-45.44-6.59c-1.86-0.27-3.46-1.45-4.29-3.14L261.12,131.2z"/>
</svg>
